PathFileType	4	(X/Y/Z)	C:/Users/opensim2020/Desktop/walking_exp_matlab/subject01_walking06_straight_04.trc	
DataRate	CameraRate	NumFrames	NumMarkers	Units	OrigDataRate	OrigDataStartFrame	OrigNumFrames	
100.00	100.00	4	43	mm	100.00	2896	212	
Frame#	Time	LFHD			RFHD			LBHD			RBHD			C7			T10			CLAV			STRN			RBAK			LSHO			LUPA			LELB			LFRM			LWRA			LWRB			LFIN			RSHO			RUPA			RELB			RFRM			RWRA			RWRB			RFIN			LASI			RASI			LPSI			RPSI			LTHI			LKNE			LTIB			LANK			LHEE			LTOE			RTHI			RKNE			RTIB			RANK			RHEE			RTOE			*39			*40			*41			*42			
		X1	Y1	Z1	X2	Y2	Z2	X3	Y3	Z3	X4	Y4	Z4	X5	Y5	Z5	X6	Y6	Z6	X7	Y7	Z7	X8	Y8	Z8	X9	Y9	Z9	X10	Y10	Z10	X11	Y11	Z11	X12	Y12	Z12	X13	Y13	Z13	X14	Y14	Z14	X15	Y15	Z15	X16	Y16	Z16	X17	Y17	Z17	X18	Y18	Z18	X19	Y19	Z19	X20	Y20	Z20	X21	Y21	Z21	X22	Y22	Z22	X23	Y23	Z23	X24	Y24	Z24	X25	Y25	Z25	X26	Y26	Z26	X27	Y27	Z27	X28	Y28	Z28	X29	Y29	Z29	X30	Y30	Z30	X31	Y31	Z31	X32	Y32	Z32	X33	Y33	Z33	X34	Y34	Z34	X35	Y35	Z35	X36	Y36	Z36	X37	Y37	Z37	X38	Y38	Z38	X39	Y39	Z39	X40	Y40	Z40	X41	Y41	Z41	X42	Y42	Z42	X43	Y43	Z43	

107	1.060	-1097.56360	153.16408	1674.13184	-1207.24377	117.44977	1672.31555	-1128.10364	268.37247	1635.12195	-1243.56934	234.47874	1632.96582	-1152.61523	310.24884	1437.40405	-1145.21191	343.56613	1142.85730	-1140.13782	167.54021	1368.50000	-1124.41003	124.42957	1216.08643	-1222.56140	360.27551	1239.53503	-984.30487	236.75594	1409.02307	-893.99890	278.01141	1229.28748	-892.65491	299.06824	1078.74097	-864.95398	265.31021	969.88452	-881.86646	189.92049	851.71332	-856.33685	244.50841	849.17261	-849.32007	199.08652	776.93170	-1296.20410	221.17905	1388.64844	-1392.82654	263.30408	1182.72070	-1392.32483	252.95575	1057.27075	-1420.40833	203.70100	945.90332	-1403.99121	98.89760	851.23956	-1438.01428	144.26347	840.04144	-1440.91309	89.43903	775.86658	-1024.42627	169.51558	944.26324	-1242.39856	163.58382	938.01825	-1079.06799	353.64548	949.14612	-1223.85791	349.67267	952.52472	-949.30353	113.59989	629.88110	-959.26538	92.18055	497.07083	-961.96320	205.12985	347.95963	-1020.59967	316.40695	163.01236	-1084.20947	356.46561	150.32146	-990.67603	210.89072	64.14342	-1290.24121	238.63683	605.35590	-1262.59229	245.07945	446.47479	-1269.55896	314.77036	284.13657	-1216.88855	361.39508	83.02893	-1168.07715	413.94989	50.09074	-1213.64990	223.74319	36.34853	-1189.21741	131.48755	1708.04614	-3101.93115	1973.14282	1023.31506	-3140.66748	2012.50134	1022.06506			 
108	1.070	-1096.64343	143.38449	1673.62854	-1206.19800	107.46378	1672.01318	-1127.47522	258.53604	1634.78674	-1242.85742	224.47591	1632.86084	-1152.53687	300.42532	1437.19421	-1145.61475	334.09894	1142.60938	-1139.96875	157.84557	1368.15662	-1124.40686	114.93121	1215.63843	-1223.03589	350.60861	1239.43347	-984.04034	227.23093	1408.35193	-894.30597	269.39539	1228.50293	-893.51013	291.43988	1078.42090	-865.59204	260.16992	969.07373	-882.13348	187.59639	849.06885	-856.80762	242.25885	847.88605	-849.84833	198.83275	774.28320	-1296.71265	211.19754	1388.98755	-1392.98865	252.66254	1182.69653	-1393.49377	240.78235	1057.43274	-1421.34534	189.35181	946.90643	-1405.08911	82.49912	854.69385	-1438.83923	127.60013	842.20557	-1442.06287	71.34345	779.53546	-1024.68091	160.19124	943.94073	-1242.75586	154.74284	937.26770	-1079.02295	344.49097	948.87561	-1223.76794	340.81140	952.25916	-949.75653	101.63348	630.80927	-960.46857	79.01616	497.98056	-963.06421	186.59773	344.33804	-1020.62091	287.95541	153.15907	-1084.23291	327.04147	137.38184	-988.15063	177.45726	61.42085	-1290.27344	233.07440	605.22455	-1262.91943	241.71220	446.64514	-1269.48108	312.90015	284.82693	-1216.97205	360.94952	83.97610	-1167.90332	413.62781	51.32139	-1213.76038	223.51582	36.35482	-1188.10864	121.54029	1707.76343	-3101.98633	1973.16943	1023.37268	-3140.71826	2012.52148	1022.11285			 
109	1.080	-1095.59668	133.52756	1673.09082	-1205.19800	97.46837	1671.74951	-1126.66589	248.70186	1634.37671	-1242.03687	214.43512	1632.69482	-1152.21094	290.72687	1436.83813	-1145.93494	324.59912	1142.30774	-1139.68506	148.09608	1367.70117	-1124.25024	105.34060	1215.11157	-1223.32471	340.86658	1239.27209	-983.70593	217.70306	1407.63049	-894.57343	260.71301	1227.59570	-893.98572	284.20126	1078.19775	-866.15387	254.84514	968.26642	-882.43347	184.86418	846.51569	-857.24213	239.62474	846.65698	-850.24023	198.18005	771.95996	-1296.15906	201.39474	1388.73376	-1393.37708	242.02837	1182.75183	-1394.53259	228.66393	1057.49951	-1422.44019	175.05132	947.95160	-1406.03589	66.36251	858.01422	-1439.84155	111.09921	844.66119	-1443.21851	53.47622	783.20258	-1024.93396	150.79463	943.44818	-1243.03015	145.74091	936.62634	-1078.87012	335.24435	948.51837	-1223.59766	331.91010	952.02448	-950.05933	89.79998	631.46069	-961.79004	66.47345	498.68542	-963.73315	168.20435	340.54898	-1020.05542	258.74457	143.10097	-1083.59937	296.79355	124.31315	-985.92670	143.40041	58.78088	-1290.70227	227.62155	605.07684	-1263.21826	238.01483	446.24258	-1269.34802	310.96686	285.52338	-1216.84619	360.54395	84.96077	-1167.83618	413.40735	52.79702	-1213.84155	223.50230	36.22425	-1187.03125	111.57868	1707.38269	-3101.86011	1973.10327	1023.33795	-3140.53149	2012.54797	1022.05951			 
110	1.090	-1094.64380	123.47298	1672.54834	-1203.99512	87.52481	1671.36157	-1126.01379	238.54372	1633.72461	-1241.12476	204.46085	1632.46765	-1151.87463	280.89908	1436.44348	-1146.12659	315.04733	1141.93494	-1139.22705	138.27782	1367.19019	-1124.05884	95.67060	1214.41406	-1223.55664	331.12140	1239.06982	-983.31512	207.97873	1406.82373	-894.71948	251.97714	1226.72546	-894.57825	276.45758	1077.72827	-866.53131	249.32396	967.47998	-882.70001	182.01974	844.08209	-857.44861	236.77054	845.55829	-850.67603	197.08868	769.68011	-1295.66138	191.41573	1388.63733	-1393.32971	231.39987	1182.56531	-1395.44580	216.61223	1057.50073	-1423.37256	160.82034	948.96844	-1406.90088	50.42944	861.34454	-1440.62122	94.85147	846.85095	-1443.87036	35.99168	786.65540	-1025.13306	141.40187	942.80176	-1243.13391	136.06325	936.10101	-1078.61304	325.91846	948.11865	-1223.30884	323.00165	951.90302	-950.71930	78.60673	631.68683	-963.05402	54.60289	499.06082	-964.45026	149.92769	336.31525	-1018.88141	228.90085	133.11154	-1082.58997	265.40536	111.44149	-984.07068	108.21131	56.80961	-1290.91125	222.31252	605.24908	-1263.56018	234.41061	446.21939	-1269.20972	308.88528	286.26425	-1216.86340	359.95502	85.95439	-1167.76416	413.16919	54.44556	-1213.88989	223.37202	36.17532	-1185.69873	101.64932	1706.98303	-3101.91479	1973.03784	1023.50317	-3140.68726	2012.49622	1021.98035			 
